<?xml version="1.0" encoding="UTF-8" standalone="no"?>
<!DOCTYPE svg PUBLIC "-//W3C//DTD SVG 1.1//EN" "http://www.w3.org/Graphics/SVG/1.1/DTD/svg11.dtd">
<svg width="100%" height="100%" viewBox="0 0 400 480" version="1.1" xmlns="http://www.w3.org/2000/svg" xmlns:xlink="http://www.w3.org/1999/xlink" xml:space="preserve" xmlns:serif="http://www.serif.com/" style="">
    <g transform="matrix(0.647941,0,0,0.647941,-59.3449,-42.5185)">
        <path d="M400.23,108.14C411.41,134.13 428.98,157.3 450.91,175.18C465.66,187.29 482.27,197.1 499.88,204.43C490.03,221.55 481.87,240.13 479.62,259.92C478.04,273.7 480.54,288.54 489.29,299.65C498.11,311.23 512,317.65 525.91,320.72C539.08,323.81 553.69,323.54 565.69,316.72C576.37,310.86 584.02,300.63 588.49,289.47C593.67,276.75 595.57,262.95 596.02,249.31C631.9,259.53 671.21,260.77 706.56,247.79C700.02,268.51 696,290.18 696.41,311.96C696.75,330.35 700.64,348.82 708.93,365.32C689.14,368.72 669.24,375.49 653.86,388.81C642.29,398.69 634.46,412.62 631.69,427.55C628.11,440.34 629.28,454.22 634.28,466.47C641.36,484.13 656.08,497.62 672.51,506.61C661.42,536.22 656.03,569.33 664.65,600.28C633.84,599.54 601.65,604.93 575.61,622.31C549.52,601.16 515.78,589.03 482.08,590.67C461.95,591.57 442.25,597.52 424.48,606.88C439.55,570.32 460.32,536.4 483.2,504.25C519.44,453.65 560.99,406.96 605.64,363.65C607.64,361.47 610.9,360.38 611.76,357.29C604.93,363.64 597.55,369.4 590.57,375.6C557.64,404.19 526.34,434.67 497.13,467.06C464.14,503.9 433.32,543.17 409.9,586.88C406.96,478.93 403.98,370.98 401.03,263.03C400.65,253.72 400.65,244.4 400.52,235.09C399.32,255.36 399.2,275.69 398.52,295.99C395.88,392.95 393.26,489.91 390.6,586.87C373.21,554.36 351.54,524.33 328.16,495.89C286.35,445.35 239.13,399.39 188.59,357.63C223.69,391.19 256.91,426.76 287.28,464.67C308.31,490.81 328,518.08 345.37,546.8C356.99,566.06 367.41,586.07 375.98,606.88C357.49,597.12 336.91,591.03 315.95,590.49C283.05,589.6 250.36,601.67 224.92,622.32C198.84,604.95 166.64,599.56 135.8,600.27C144.48,569.33 139.09,536.19 127.94,506.6C142.92,498.39 156.48,486.57 164.13,471.05C169.2,460.86 171.61,449.29 170.63,437.93C170.26,432.94 168.84,428.12 167.77,423.26C164.39,409.12 156.07,396.34 144.76,387.25C129.63,374.95 110.58,368.6 91.59,365.31C102.79,343.07 105.77,317.46 103.33,292.89C101.89,277.56 98.51,262.47 93.89,247.79C129.27,260.78 168.59,259.51 204.5,249.32C205.09,268.1 208.38,287.84 219.67,303.38C228.58,315.76 243.73,323.09 258.96,322.62C274.33,322.13 290.05,317.77 302.45,308.42C314.96,299.07 321.63,283.38 321.31,267.93C320.98,245.26 311.68,223.84 300.64,204.44C330.39,192.05 357.31,172.44 377.2,146.99C386.52,135.11 394.21,121.98 400.23,108.14ZM400.5,662.57C400.71,679.06 403.11,695.51 406.61,711.61C409.44,722.79 412.57,734.82 421.13,743.11C414.14,750.03 407.26,757.06 400.2,763.91C393.24,756.98 386.31,750.03 379.36,743.09C385.17,737.66 388.32,730.15 390.8,722.76C397.03,703.3 398.74,682.81 400.5,662.57Z"/>
    </g>
</svg>