<?xml version="1.0" encoding="UTF-8" standalone="no"?>
<!DOCTYPE svg PUBLIC "-//W3C//DTD SVG 1.1//EN" "http://www.w3.org/Graphics/SVG/1.1/DTD/svg11.dtd">
<svg width="100%" height="100%" viewBox="0 0 456 480" version="1.1" xmlns="http://www.w3.org/2000/svg" xmlns:xlink="http://www.w3.org/1999/xlink" xml:space="preserve" xmlns:serif="http://www.serif.com/" style="">
    <g id="inner" transform="matrix(0.576821,0,0,0.576821,-2.81489,7.0826)">
        <path d="M284.95,216.1C302.17,240.24 319.31,264.44 336.41,288.66C323.98,318.37 312.92,348.63 302.44,379.07C286.91,369.11 271.79,358.48 256.42,348.26C265.94,304.21 275.4,260.15 284.95,216.1ZM464.4,288.79C481.35,264.43 498.67,240.3 515.84,216.09C525.39,260.14 534.86,304.2 544.37,348.25C529.06,358.56 513.81,368.97 498.42,379.17C487.85,348.77 476.93,318.45 464.4,288.79ZM326.76,220.78C375.86,220.63 424.98,220.62 474.08,220.79C461.53,237.42 448.75,253.88 436.24,270.54C412.38,270.72 388.51,270.6 364.65,270.6C352.07,253.95 339.27,237.48 326.76,220.78ZM366.05,297.65C388.96,297.57 411.86,297.52 434.77,297.68C448.6,337.85 462.89,377.86 476.71,418.03C451.23,433.86 425.81,449.8 400.27,465.54C374.92,449.63 349.47,433.89 324.09,418.04C337.89,377.85 352.2,337.83 366.05,297.65ZM57.8,299.11C99.87,299.15 141.94,299.11 184.01,299.13C188.12,319.5 206.66,336.21 227.68,336.74C225.22,346.31 222.75,355.88 220.27,365.44C243.88,382.69 267.69,399.65 291.38,416.77C289.65,422.75 287.33,428.57 286.06,434.67C297.45,442.51 309.38,449.54 320.99,457.06C346.89,473.46 372.79,489.87 398.7,506.27C399.69,507.02 401.2,506.96 402.19,506.22C437.7,483.72 473.22,461.24 508.73,438.75C510.84,437.37 513.15,436.21 514.82,434.27C513.07,428.42 511.27,422.58 509.41,416.76C533.11,399.64 556.95,382.7 580.53,365.41C578.03,355.86 575.56,346.3 573.14,336.73C585.84,336.25 598.18,330.1 606.3,320.33C611.57,314.29 614.97,306.83 616.85,299.08C658.91,299.19 700.97,299.09 743.03,299.13C690.68,356.67 634.62,410.84 575.54,461.45C531.55,498.9 486.06,534.64 438.47,567.41C425.82,575.89 413.36,584.69 400.21,592.39C336.27,551.87 276.36,505.27 218.94,456.02C162.2,406.95 108.2,354.67 57.8,299.11Z"/>
    </g>
</svg>